<mxfile host="app.diagrams.net" modified="2024-07-14T17:08:46.885Z" agent="Mozilla/5.0 (Windows NT 10.0; Win64; x64) AppleWebKit/537.36 (KHTML, like Gecko) Chrome/126.0.0.0 Safari/537.36" etag="MmHQWgpow4D9Q1dkURB1" version="24.6.4" type="google">
  <diagram name="Page-1" id="_rtUWv1oSwlxZlpi5T5S">
    <mxGraphModel grid="1" page="1" gridSize="10" guides="1" tooltips="1" connect="1" arrows="1" fold="1" pageScale="1" pageWidth="850" pageHeight="1100" math="0" shadow="0">
      <root>
        <mxCell id="0" />
        <mxCell id="1" parent="0" />
        <mxCell id="f5Awk_WWIPpOjc76H6UF-5" value="" style="edgeStyle=orthogonalEdgeStyle;rounded=0;orthogonalLoop=1;jettySize=auto;html=1;" edge="1" parent="1" source="f5Awk_WWIPpOjc76H6UF-1" target="f5Awk_WWIPpOjc76H6UF-4">
          <mxGeometry relative="1" as="geometry" />
        </mxCell>
        <mxCell id="f5Awk_WWIPpOjc76H6UF-1" value="API (tradingview)&lt;div&gt;&lt;br&gt;&lt;/div&gt;" style="rounded=0;whiteSpace=wrap;html=1;" vertex="1" parent="1">
          <mxGeometry x="40" y="20" width="120" height="60" as="geometry" />
        </mxCell>
        <mxCell id="f5Awk_WWIPpOjc76H6UF-7" value="" style="edgeStyle=orthogonalEdgeStyle;rounded=0;orthogonalLoop=1;jettySize=auto;html=1;" edge="1" parent="1" source="f5Awk_WWIPpOjc76H6UF-4" target="f5Awk_WWIPpOjc76H6UF-6">
          <mxGeometry relative="1" as="geometry" />
        </mxCell>
        <mxCell id="f5Awk_WWIPpOjc76H6UF-4" value="mapping program" style="whiteSpace=wrap;html=1;rounded=0;" vertex="1" parent="1">
          <mxGeometry x="60" y="190" width="120" height="60" as="geometry" />
        </mxCell>
        <mxCell id="f5Awk_WWIPpOjc76H6UF-6" value="Dataset for classification" style="shape=cylinder3;whiteSpace=wrap;html=1;boundedLbl=1;backgroundOutline=1;size=15;" vertex="1" parent="1">
          <mxGeometry x="130" y="340" width="80" height="120" as="geometry" />
        </mxCell>
        <mxCell id="f5Awk_WWIPpOjc76H6UF-8" style="edgeStyle=orthogonalEdgeStyle;rounded=0;orthogonalLoop=1;jettySize=auto;html=1;exitX=0.5;exitY=1;exitDx=0;exitDy=0;" edge="1" parent="1" source="f5Awk_WWIPpOjc76H6UF-4" target="f5Awk_WWIPpOjc76H6UF-4">
          <mxGeometry relative="1" as="geometry" />
        </mxCell>
      </root>
    </mxGraphModel>
  </diagram>
</mxfile>
